# xmcd
#
# Track frame offsets: 
#        150
#        21237
#        42100
#        64275
#        86225
#        104950
#        126475
#        147512
#        169000
#        190425
#
# Disc length: 2774 seconds
#
# Revision: 4
# Processed by: cddbd v1.5.2PL0 Copyright (c) Steve Scherf et al.
# Submitted via: ExactAudioCopyFreeDBPlugin 1.0
#
DISCID=9e0ad40a
DTITLE=齊秦 - 痛並快樂着
DYEAR=1995
DGENRE=Pop
TTITLE0=痛並快樂著
TTITLE1=往事隨風
TTITLE2=暴雨將至
TTITLE3=袖手旁觀
TTITLE4=放任分離
TTITLE5=不如這樣吧
TTITLE6=背影
TTITLE7=盡頭
TTITLE8=貝多芬聽不見自己的歌
TTITLE9=痛並快樂著II
EXTD=YEAR: 1995
EXTT0=
EXTT1=
EXTT2=
EXTT3=
EXTT4=
EXTT5=
EXTT6=
EXTT7=
EXTT8=
EXTT9=
PLAYORDER=
